<svg width="28" height="28" viewBox="0 0 28 28" fill="none" xmlns="http://www.w3.org/2000/svg">
<path d="M14.2729 0.104248C6.77826 0.104248 0.70166 6.18085 0.70166 13.6755C0.70166 21.1702 6.77826 27.2468 14.2729 27.2468C21.7676 27.2468 27.8442 21.1702 27.8442 13.6755C27.8442 6.18085 21.7676 0.104248 14.2729 0.104248ZM19.3125 13.8292L11.6786 18.3854C11.624 18.4185 11.5543 18.4202 11.498 18.387C11.4434 18.3555 11.4086 18.2968 11.4086 18.2313V13.6751V9.11882C11.4086 9.05425 11.4434 8.99461 11.498 8.96307C11.5543 8.93078 11.624 8.93242 11.6786 8.96471L19.3125 13.5218C19.3671 13.5529 19.3995 13.6129 19.3995 13.675C19.3995 13.7385 19.3672 13.7973 19.3125 13.8292Z" fill="#1AF085"/>
</svg>
